# xmcd
#
# Track frame offsets: 
#        150
#        37927
#        65563
#        90263
#        117785
#        142646
#        162446
#        190698
#        222964
#        248740
#
# Disc length: 3718 seconds
#
# Revision: 0
# Processed by: cddbd v1.5.2PL0 Copyright (c) Steve Scherf et al.
# Submitted via: ExactAudioCopy v0.99pb3
#
DISCID=790e840a
DTITLE=Eddie Kirkland - Pick Up The Pieces
DYEAR=2011
DGENRE=Blues
TTITLE0=Pick Up The Pieces
TTITLE1=Why Ca't I Be You Back Door Man Instead
TTITLE2=Turning Point
TTITLE3=Walking At Midnight
TTITLE4=Don't Monkey Around With Me
TTITLE5=Write My Baby A Letter
TTITLE6=Working Man
TTITLE7=I've Got To Leave Your Town
TTITLE8=I'm A Stranger
TTITLE9=Pick Up The Pieces
EXTD=
EXTT0=
EXTT1=
EXTT2=
EXTT3=
EXTT4=
EXTT5=
EXTT6=
EXTT7=
EXTT8=
EXTT9=
PLAYORDER=
